# xmcd
#
# Track frame offsets: 
#        150
#        21617
#        44602
#        65564
#        89349
#        104078
#        117113
#        136980
#        156665
#
# Disc length: 2344 seconds
#
# Revision: 0
# Processed by: cddbd v1.5.2PL0 Copyright (c) Steve Scherf et al.
# Submitted via: ExactAudioCopy v0.99pb5
#
DISCID=88092609
DTITLE=John Mayall - Ten Years Are Gone [CDOne)
DYEAR=1973
DGENRE=Blues-Rock
TTITLE0=Ten Years Are Gone
TTITLE1=Driving Till The Break Of Day
TTITLE2=Drifting
TTITLE3=Better Pass You By
TTITLE4=California Campground
TTITLE5=Undecided
TTITLE6=Good Looking Stranger
TTITLE7=I Still Care
TTITLE8=Don't Hang Me Up
EXTD=
EXTT0=
EXTT1=
EXTT2=
EXTT3=
EXTT4=
EXTT5=
EXTT6=
EXTT7=
EXTT8=
PLAYORDER=
